inDegrees=no
num_controls=7
num_derivatives=13
num_iterations=85
num_multipliers=7
num_parameters=0
num_slacks=7
num_states=26
objective=0.490329
objective_accelerations=0.007268
objective_balance=0.000297
objective_effort=0.005861
objective_height=0.468090
objective_ligament=0.008813
solver_duration=1197.629642
status=Solve_Succeeded
success=true
DataType=double
version=3
OpenSimVersion=4.5
endheader
time	/jointset/ground_pelvis/pelvis_tilt/value	/jointset/ground_pelvis/pelvis_tx/value	/jointset/ground_pelvis/pelvis_ty/value	/jointset/hip_l/hip_flexion_l/value	/jointset/hip_l/hip_adduction_l/value	/jointset/hip_l/hip_rotation_l/value	/jointset/back/lumbar_extension/value	/jointset/patellofemoral_l/patellar_flexion_l/value	/jointset/knee_l/knee_flexion_l/value	/jointset/knee_l/knee_adduction_l/value	/jointset/knee_l/knee_rotation_l/value	/jointset/ankle_l/ankle_angle_l/value	/jointset/subtalar_l/subtalar_angle_l/value	/jointset/ground_pelvis/pelvis_tilt/speed	/jointset/ground_pelvis/pelvis_tx/speed	/jointset/ground_pelvis/pelvis_ty/speed	/jointset/hip_l/hip_flexion_l/speed	/jointset/hip_l/hip_adduction_l/speed	/jointset/hip_l/hip_rotation_l/speed	/jointset/back/lumbar_extension/speed	/jointset/patellofemoral_l/patellar_flexion_l/speed	/jointset/knee_l/knee_flexion_l/speed	/jointset/knee_l/knee_adduction_l/speed	/jointset/knee_l/knee_rotation_l/speed	/jointset/ankle_l/ankle_angle_l/speed	/jointset/subtalar_l/subtalar_angle_l/speed	/forceset/tau_hip_flexion_l	/forceset/tau_hip_adduction_l	/forceset/tau_hip_rotation_l	/forceset/tau_knee_flexion_l	/forceset/tau_ankle_angle_l	/forceset/tau_subtalar_angle_l	/forceset/tau_lumbar_extension	lambda_cid13_p0	lambda_cid13_p1	lambda_cid13_p2	lambda_cid13_p3	lambda_cid13_p4	lambda_cid13_p5	lambda_cid14_p0	/jointset/ground_pelvis/pelvis_tilt/accel	/jointset/ground_pelvis/pelvis_tx/accel	/jointset/ground_pelvis/pelvis_ty/accel	/jointset/hip_l/hip_flexion_l/accel	/jointset/hip_l/hip_adduction_l/accel	/jointset/hip_l/hip_rotation_l/accel	/jointset/back/lumbar_extension/accel	/jointset/patellofemoral_l/patellar_flexion_l/accel	/jointset/knee_l/knee_flexion_l/accel	/jointset/knee_l/knee_adduction_l/accel	/jointset/knee_l/knee_rotation_l/accel	/jointset/ankle_l/ankle_angle_l/accel	/jointset/subtalar_l/subtalar_angle_l/accel	gamma_cid13_p0	gamma_cid13_p1	gamma_cid13_p2	gamma_cid13_p3	gamma_cid13_p4	gamma_cid13_p5	gamma_cid14_p0
0	0.050670662604148	0.1065192042982613	0.9042138358100758	0.1266922784136757	-0.3586610282863233	-0.2447349632624118	-0.2144969558742783	0.2051545070141877	0.2051545070141877	-0.150305490236348	-0.1736534307047069	0.09024313228550125	0.09162159187037529	0	0	0	0	0	0	0	0	0	0	0	0	0	0.0703408207658404	-0.04461525485244504	-0.008118972188021066	-0.2237196238609378	0.1835090320418267	-0.07540744681352825	-0.002846259465694284	28.34839053168701	28.24514134644903	-5.308672232885315	-36.22799767983179	-457.0517053120429	-53.29600198402639	-26.53831728025392	0.6804040920622457	0.9690481218990994	-0.02677894391476193	-1.310277947700245	-0.2439919351267871	-0.283978514759198	-0.007378806712857067	1.332354663619697	1.332354663619697	-0.07406979632532354	-0.7311864011041915	1.951488464897645	0.3450890617856031	2.565178821000318e-09	-2.359126321841049e-07	1.057447138741541e-07	-1.796187131435109e-08	5.56162473760198e-10	-2.233260146725128e-07	-2.730017019209008e-08
0.01	0.05070393083507302	0.1065671351242819	0.904212557246721	0.1266298430393089	-0.3586706660701802	-0.2447398991750344	-0.2144969918247728	0.205221668494496	0.2052216684944959	-0.1503043718757111	-0.1736801012599118	0.09034140730020898	0.09164173524808003	0.00657705227001614	0.009537238547053085	-0.0002550314592977196	-0.01215400147225872	-0.001689395180490159	-0.0001417330891600589	3.716878051305411e-05	0.01355210944238931	0.01355210944238931	0.000692895121163043	-0.004452758811695642	0.01975213869743398	0.004307946688433839	0.06967881263997101	-0.04312707074115105	-0.007843033169267263	-0.2220014129396334	0.1807431719061868	-0.07564977219756479	-0.002462801262233847	27.41953221919656	28.43070400028911	-5.24423185679511	-35.37200719797191	-457.2887994858173	-52.77868344598988	-26.5392813752543	0.634868037617862	0.9387191301758709	-0.02476295395650266	-1.117998602243321	-0.09568301155946164	0.2475254049715666	0.01591855234449174	1.384616551693616	1.384616551693615	0.2113310385870614	-0.1700968568367465	2.00164228439704	0.5155624338216362	5.523019058682592e-09	-2.274616110927428e-08	9.332574976814712e-09	-2.275563363897831e-09	1.073018703923257e-08	-1.974494292289038e-08	-7.833017583869502e-10
0.02	0.0508006720373275	0.1067089698175864	0.9042087488273695	0.1264558601791685	-0.3586900517462517	-0.2447208931963554	-0.2144953253210799	0.2054279465626571	0.2054279465626571	-0.1502822521894127	-0.1737248546503605	0.0906401168443372	0.09171334108495897	0.01269459426589485	0.01878077345680453	-0.0005059711993648554	-0.02230949715470286	-0.001949578442953554	0.004788378260318914	0.0003404908374703176	0.02782331757058132	0.02782331757058132	0.00420026513232379	-0.003616567048771198	0.04008690588409857	0.01029249183484215	0.06901680451410161	-0.04163888662985711	-0.007567094150513873	-0.220283202018329	0.1779773117705468	-0.07589209758160137	-0.002079343058773375	26.49947690474902	28.62059707022566	-5.187188629914622	-34.58555887982251	-457.4001538569098	-52.22609576439444	-26.54067961261364	0.5885020372347604	0.9103073944387721	-0.02596060006864523	-0.9105767897373281	0.04185044847856745	0.7303903729686065	0.04585184857598532	1.476174400780236	1.476174400780237	0.4888251816742175	0.3266037138198284	2.068014162743766	0.6804087533804959	8.480859296364867e-09	1.904203099655563e-07	-8.70795639205247e-08	1.341074458655543e-08	2.090421160470494e-08	1.838361288267321e-07	2.573356667531618e-08
0.03	0.05095695300753259	0.1069417064476738	0.9042024311975603	0.12618632025668	-0.3587083251046184	-0.2446391496188784	-0.2144893560488917	0.2057776092178087	0.2057776092178086	-0.1502181227639934	-0.1737469022889954	0.09114203357722452	0.09184865527235626	0.01855086461958923	0.0277112789505876	-0.0007590814576957454	-0.0316735417995741	-0.001821482983372579	0.01116168944911414	0.0008924140518215477	0.04193246138012194	0.04193246138012196	0.008359770017213277	-0.00117580367984282	0.06008019493931301	0.01658321599381345	0.06756839054514205	-0.04024150734503709	-0.007178262026058414	-0.2169429283100556	0.172230775016681	-0.07550203778685695	-0.001163884179744648	24.64531542174563	28.61870395515735	-5.007394669021695	-32.87604648547108	-457.4922848674676	-51.88477578594082	-26.54084257894586	0.5825796270289783	0.8761338308639584	-0.02521102105044583	-0.9605760523212289	-0.01917458288143309	0.5310215796580952	0.06572012561318455	1.351766305249707	1.351766305249709	0.3396529597746242	0.1453690391621436	1.93255508064362	0.575314703746868	4.440577968888497e-09	1.075017309249196e-07	-4.312550883838648e-08	7.762191442982384e-09	1.182887115120638e-08	9.569248024192847e-08	1.418774839251946e-08
0.04	0.05117147469979307	0.1072620904735022	0.9041935375087008	0.1258208883376508	-0.358728810243905	-0.2445056289119489	-0.2144766960310103	0.2062630596978972	0.2062630596978973	-0.1501203703261496	-0.1737560310157944	0.09183739696141066	0.09204125879266159	0.02434273867697091	0.03631025260500619	-0.001021183009431935	-0.0414878964628136	-0.002391934626964379	0.01514380415083391	0.00167863997611658	0.05498088255801183	0.05498088255801182	0.01092486761723504	-0.001032784681601365	0.07877623614386096	0.02175035841644158	0.06611997657618274	-0.03884412806021706	-0.006789429901602501	-0.2136026546017822	0.1664842382628152	-0.0751119779921125	-0.0002484253007157633	22.79955492538723	28.62283104833377	-4.837117259920657	-31.22907816050979	-457.4591034995762	-51.5017775514751	-26.5402173606426	0.5756227779722199	0.8440010265658913	-0.02775885874969816	-1.000638793410981	-0.09785897215608291	0.2521510755535127	0.09271239056474442	1.264029874450087	1.264029874450079	0.1699437247006602	-0.1329451603174587	1.808564592610469	0.4556924061118621	2.560054751201964e-10	1.847830549014949e-08	3.722694573225578e-09	1.673744256233532e-09	2.356636573605308e-09	1.533888969817079e-09	1.857132445465007e-09
0.05	0.05144284518682208	0.1076668425074059	0.9041819129145974	0.1253575648855775	-0.3587569911922669	-0.2443404486206602	-0.2144545385035129	0.2068755987369643	0.2068755987369643	-0.1500015544714513	-0.1737714878872699	0.09271476240363921	0.09228198427932335	0.02984347491974781	0.04458789061740295	-0.001311219287346952	-0.05099120731060715	-0.003198478575347876	0.01792801682676379	0.002839687655781581	0.06754129996401166	0.06754129996401156	0.01293221306997787	-0.002009524757765141	0.0966388613895738	0.02642872572772533	0.06519679236142163	-0.03881709531103936	-0.006438105119682063	-0.2111713511058981	0.1616291916695152	-0.07362795511366084	0.000315277298438523	21.30567334195703	28.11983973245876	-4.619802969387917	-29.97851649230716	-457.5573788232064	-52.29886066421923	-26.53960539559414	0.5241164480031998	0.811805940375527	-0.03074813894240089	-0.8973392598778678	-0.0651891798265144	0.2969204152128892	0.1408242765309081	1.254203608180326	1.254203608180328	0.2302196826729987	-0.0726781470759323	1.766413452876342	0.4790038912397493	1.401908414709524e-09	4.671172564722779e-08	-1.515302391347722e-08	3.152769793950257e-09	3.238619858704631e-09	3.679709964946932e-08	5.801682245022095e-09
